<svg xmlns="http://www.w3.org/2000/svg" viewBox="0 0 232.06 219.07"><defs><style>.cls-1{fill:#1c75bc;}.cls-2{fill:#fff;}</style></defs><g id="Layer_2" data-name="Layer 2"><g id="Layer_1-2" data-name="Layer 1"><path class="cls-1" d="M110.42,52.51c0,7.3.25,14.61-.14,21.88a9.9,9.9,0,0,1-3.13,6.48q-27,21.63-32.61,55.67c-.62,3.77-2.42,4.7-5.91,4.22-14.19-1.92-29.22-15.43-28.86-31.5.56-24.76,1.45-49.62-.14-74.29-1.7-26.21,28.61-41.34,49-32.38,13.66,6,21.68,17.16,21.76,32.14,0,5.93,0,11.86,0,17.78Z"/><path class="cls-1" d="M104.45,217.67c-2.21.24-3.08.41-4,.41-18.69,0-37.38.07-56.07,0-8,0-12.16-4.22-11.64-11.26.41-5.61,3.65-9,9.31-9.22,5.16-.21,10.34-.14,15.5-.07,3.62,0,5.19-1.54,5.26-5.21.24-11.91.33-12-10.6-15.4-15.19-4.75-28.85-11.75-39.38-24.25C4.86,143.13,1,132.22.24,120.12-.17,114.07.05,108,.16,101.89c.09-5.11,2.21-9.21,7.08-11.26,5-2.12,10.22-1.7,14,2.08,2.12,2.08,3.22,5.72,3.7,8.82.62,4,.15,8.18.17,12.28.14,23.52,16.46,41.69,39.91,44.44,8.37,1,8.45,1,10.1,9.09a87.33,87.33,0,0,0,25.28,46C101.59,214.47,102.64,215.71,104.45,217.67Z"/><path class="cls-1" d="M232,154.28c.06-1.2,0-4.63,0-5.85a70.64,70.64,0,1,0-79.22,70.11c1,.34,16.33.53,17.41.53h52.76a9.18,9.18,0,0,0,9.18-9.18V159.77C232.05,159.07,232.1,154.93,232,154.28Z"/><rect class="cls-2" x="135.21" y="183.45" width="76.8" height="10.97"/><rect class="cls-2" x="191.5" y="162.94" width="20.51" height="10.97"/><rect class="cls-2" x="191.5" y="142.66" width="20.51" height="10.97"/><path d="M141.24,163.67c2.26-.12,3.77-.13,5.25-.29,4.41-.48,7-3.1,7.15-7.52.15-6.44,0-12.88.1-19.32,0-2.55-1-3.3-3.43-3.27-3.66,0-7.09-.08-9.06,4-.42.87-2.8.81-5,1.35,0-5-.13-9.18.13-13.36.05-.8,1.68-2.13,2.59-2.14q22.62-.19,45.22,0a3.41,3.41,0,0,1,2.52,2.22c.27,4.06.12,8.15.12,12.35-2.75.8-4.62,1-6.07-1.83-1.21-2.37-8.65-3.87-10.44-2.24-.73.66-.9,2.21-.91,3.36-.09,5.62-.07,11.24,0,16.85,0,7,2.29,9.23,9.36,9.58.81,0,1.62.17,3.12.32a44.4,44.4,0,0,1-.13,7.21c-.16,1-1.64,2.57-2.55,2.58q-17.67.27-35.35,0a3.5,3.5,0,0,1-2.46-2.28A56.25,56.25,0,0,1,141.24,163.67Z"/></g></g></svg>