<svg xmlns="http://www.w3.org/2000/svg" viewBox="0 0 232.06 219.07"><defs><style>.cls-1{fill:#231f20;}.cls-2{fill:#1c75bc;}.cls-3{fill:#fff;}</style></defs><g id="Layer_2" data-name="Layer 2"><g id="Layer_1-2" data-name="Layer 1"><path class="cls-1" d="M110.42,52.51c0,7.3.25,14.61-.14,21.88a9.9,9.9,0,0,1-3.13,6.48q-27,21.63-32.61,55.67c-.62,3.77-2.42,4.7-5.91,4.22-14.19-1.92-29.22-15.43-28.86-31.5.56-24.76,1.45-49.62-.14-74.29-1.7-26.21,28.61-41.34,49-32.38,13.66,6,21.68,17.16,21.76,32.14,0,5.93,0,11.86,0,17.78Z"/><path class="cls-1" d="M104.45,217.67c-2.21.24-3.08.41-4,.41-18.69,0-37.38.07-56.07,0-8,0-12.16-4.22-11.64-11.26.41-5.61,3.65-9,9.31-9.22,5.16-.21,10.34-.14,15.5-.07,3.62,0,5.19-1.54,5.26-5.21.24-11.91.33-12-10.6-15.4-15.19-4.75-28.85-11.75-39.38-24.25C4.86,143.13,1,132.22.24,120.12-.17,114.07.05,108,.16,101.89c.09-5.11,2.21-9.21,7.08-11.26,5-2.12,10.22-1.7,14,2.08,2.12,2.08,3.22,5.72,3.7,8.82.62,4,.15,8.18.17,12.28.14,23.52,16.46,41.69,39.91,44.44,8.37,1,8.45,1,10.1,9.09a87.33,87.33,0,0,0,25.28,46C101.59,214.47,102.64,215.71,104.45,217.67Z"/><path class="cls-2" d="M232,154.28c.06-1.2,0-4.63,0-5.85a70.64,70.64,0,1,0-79.22,70.11c1,.34,16.33.53,17.41.53h52.76a9.18,9.18,0,0,0,9.18-9.18V159.77C232.05,159.07,232.1,154.93,232,154.28Z"/><rect class="cls-3" x="135.21" y="183.45" width="76.8" height="10.97"/><rect class="cls-3" x="191.5" y="162.94" width="20.51" height="10.97"/><rect class="cls-3" x="191.5" y="142.66" width="20.51" height="10.97"/><path d="M135.44,139.59c0-5.12-.14-9.33.12-13.52.05-.78,1.72-2.07,2.66-2.08,14.93-.14,29.87-.07,44.81-.13,2.37,0,3.1,1,3,3.24-.09,3,.1,6-.1,9-.07,1-.93,2.7-1.5,2.73a5.25,5.25,0,0,1-3.8-1.23c-2.67-3-7-4.7-10.48-3.32a3.58,3.58,0,0,0-1.56,2.79c-.13,6.57-.17,13.15,0,19.73.11,4.2,2.71,6.81,6.89,7.34,1.61.2,3.24.22,5.51.36a47.08,47.08,0,0,1-.12,7.35c-.17,1-1.69,2.51-2.62,2.52-11.64.18-23.29.1-34.94.14-2.05,0-3.05-.7-3-2.86s0-4.58,0-6.42c.64-.53.73-.67.84-.69,11.64-1.85,11.64-1.85,11.64-13.72,0-4.52-.06-9,0-13.56,0-2.21-.7-3.26-3.08-3.19-3.56.11-7.12-.4-9.23,3.72C140.08,138.83,137.71,138.87,135.44,139.59Z"/></g></g></svg>