<svg xmlns="http://www.w3.org/2000/svg" viewBox="0 0 232.06 219.07"><defs><style>.cls-1{fill:#1c75bc;}.cls-2{fill:#fff;}</style></defs><g id="Layer_2" data-name="Layer 2"><g id="Layer_1-2" data-name="Layer 1"><path class="cls-1" d="M110.42,52.51c0,7.3.25,14.61-.14,21.88a9.9,9.9,0,0,1-3.13,6.48q-27,21.63-32.61,55.67c-.62,3.77-2.42,4.7-5.91,4.22-14.19-1.92-29.22-15.43-28.86-31.5.56-24.76,1.45-49.62-.14-74.29-1.7-26.21,28.61-41.34,49-32.38,13.66,6,21.68,17.16,21.76,32.14,0,5.93,0,11.86,0,17.78Z"/><path class="cls-1" d="M104.45,217.67c-2.21.24-3.08.41-4,.41-18.69,0-37.38.07-56.07,0-8,0-12.16-4.22-11.64-11.26.41-5.61,3.65-9,9.31-9.22,5.16-.21,10.34-.14,15.5-.07,3.62,0,5.19-1.54,5.26-5.21.24-11.91.33-12-10.6-15.4-15.19-4.75-28.85-11.75-39.38-24.25C4.86,143.13,1,132.22.24,120.12-.17,114.07.05,108,.16,101.89c.09-5.11,2.21-9.21,7.08-11.26,5-2.12,10.22-1.7,14,2.08,2.12,2.08,3.22,5.72,3.7,8.82.62,4,.15,8.18.17,12.28.14,23.52,16.46,41.69,39.91,44.44,8.37,1,8.45,1,10.1,9.09a87.33,87.33,0,0,0,25.28,46C101.59,214.47,102.64,215.71,104.45,217.67Z"/><path class="cls-1" d="M232,154.28c.06-1.2,0-4.63,0-5.85a70.64,70.64,0,1,0-79.22,70.11c1,.34,16.33.53,17.41.53h52.76a9.18,9.18,0,0,0,9.18-9.18V159.77C232.05,159.07,232.1,154.93,232,154.28Z"/><rect class="cls-2" x="123.96" y="122.22" width="76.99" height="16.2"/><rect class="cls-2" x="123.96" y="144.22" width="76.99" height="16.2"/><rect class="cls-2" x="123.96" y="166.22" width="59.53" height="16.2"/></g></g></svg>